<svg xmlns="http://www.w3.org/2000/svg" xmlns:xlink="http://www.w3.org/1999/xlink" width="500" zoomAndPan="magnify" viewBox="0 0 375 374.999991" height="500" preserveAspectRatio="xMidYMid meet" version="1.0"><defs><g/></defs><g fill="#ffffff" fill-opacity="1"><g transform="translate(129.736055, 218.310486)"><g><path d="M 19.316406 -16.710938 C 19.316406 -18.476562 17.929688 -19.902344 16.167969 -19.902344 C 14.402344 -19.902344 13.015625 -18.476562 13.015625 -16.710938 C 13.015625 -14.992188 14.402344 -13.5625 16.167969 -13.5625 C 17.929688 -13.5625 19.316406 -14.992188 19.316406 -16.710938 Z M 32.332031 -16.839844 C 32.332031 -25.195312 26.917969 -33.59375 16.207031 -33.59375 C 5.332031 -33.59375 0 -25.195312 0 -16.839844 C 0 -8.441406 5.332031 0 16.207031 0 C 26.917969 0 32.332031 -8.441406 32.332031 -16.839844 Z M 26.035156 -16.710938 C 26.035156 -11.296875 22.71875 -5.878906 16.207031 -5.878906 C 9.617188 -5.878906 6.339844 -11.296875 6.339844 -16.710938 C 6.339844 -22.214844 9.617188 -27.671875 16.207031 -27.671875 C 22.71875 -27.671875 26.035156 -22.214844 26.035156 -16.710938 Z M 26.035156 -16.710938 "/></g></g></g><g fill="#ffffff" fill-opacity="1"><g transform="translate(163.660931, 218.310486)"><g><path d="M 27.796875 -33.59375 L 22.382812 -33.59375 C 22.085938 -33.59375 21.878906 -33.382812 21.878906 -33.214844 L 21.878906 -11.335938 L 6.382812 -33.46875 C 6.339844 -33.550781 6.089844 -33.59375 6.003906 -33.59375 L 0.417969 -33.59375 C 0.210938 -33.59375 0 -33.382812 0 -33.214844 L 0 -8.0625 L 6.425781 -8.0625 L 6.425781 -22.253906 L 21.878906 -0.125 C 21.917969 -0.0429688 22.171875 0 22.253906 0 L 27.796875 0 C 28.09375 0 28.261719 -0.210938 28.261719 -0.378906 L 28.261719 -33.214844 C 28.261719 -33.382812 28.09375 -33.59375 27.796875 -33.59375 Z M 27.796875 -33.59375 "/></g></g></g><g fill="#ffffff" fill-opacity="1"><g transform="translate(193.345196, 218.310486)"><g><path d="M 15.957031 -6.257812 L 6.425781 -6.257812 L 6.425781 -13.816406 L 19.609375 -13.816406 C 19.863281 -13.816406 20.070312 -14.023438 20.070312 -14.191406 L 20.070312 -19.527344 C 20.070312 -19.734375 19.863281 -19.902344 19.609375 -19.902344 L 6.425781 -19.902344 L 6.425781 -27.503906 L 15.957031 -27.503906 L 15.957031 -33.59375 L 0.460938 -33.59375 C 0.210938 -33.59375 0 -33.382812 0 -33.214844 L 0 -0.378906 C 0 -0.210938 0.210938 0 0.460938 0 L 15.957031 0 Z M 15.957031 -6.257812 "/></g></g></g><g fill="#7ed957" fill-opacity="1"><g transform="translate(134.70414, 205.900492)"><g><path d="M 10.792969 -8.273438 C 8.472656 -8.273438 6.65625 -6.457031 6.65625 -4.136719 C 6.65625 -1.867188 8.472656 0 10.792969 0 C 13.0625 0 14.929688 -1.867188 14.929688 -4.136719 C 14.929688 -6.457031 13.0625 -8.273438 10.792969 -8.273438 Z M 10.792969 -8.273438 "/></g></g></g><g fill="#ffffff" fill-opacity="1"><g transform="translate(215.968977, 228.670934)"><g><path d="M 16.089844 0 C 24.132812 0 32.179688 -5.269531 32.179688 -15.535156 L 32.179688 -39.945312 C 32.179688 -50.140625 24.132812 -55.480469 16.089844 -55.480469 C 8.042969 -55.480469 0 -50.140625 0 -39.945312 L 0 -15.535156 C 0 -5.269531 8.042969 0 16.089844 0 Z M 16.089844 -46.394531 C 18.933594 -46.394531 21.914062 -44.453125 21.914062 -40.5 L 21.914062 -15.1875 C 21.914062 -11.234375 19 -9.222656 16.089844 -9.222656 C 13.246094 -9.222656 10.332031 -11.234375 10.332031 -15.1875 L 10.332031 -40.5 C 10.332031 -44.453125 13.175781 -46.394531 16.089844 -46.394531 Z M 16.089844 -46.394531 "/></g></g></g><g fill="#ffffff" fill-opacity="1"><g transform="translate(249.807225, 228.670934)"><g><path d="M 21.636719 -54.855469 C 21.636719 -55.132812 21.429688 -55.480469 20.945312 -55.480469 L 12.96875 -55.480469 L 0.417969 -48.683594 C 0 -48.476562 -0.0703125 -48.199219 0.0703125 -47.851562 L 3.121094 -41.402344 C 3.257812 -41.054688 3.675781 -40.917969 4.023438 -40.984375 C 6.3125 -41.816406 8.667969 -42.789062 11.097656 -43.621094 L 11.097656 -0.625 C 11.097656 -0.347656 11.304688 0 11.789062 0 L 20.945312 0 C 21.429688 0 21.636719 -0.347656 21.636719 -0.625 Z M 21.636719 -54.855469 "/></g></g></g></svg>