<svg version="1.1" id="Layer_1" xmlns="http://www.w3.org/2000/svg" xmlns:xlink="http://www.w3.org/1999/xlink" x="0px" y="0px"
	 width="100%" viewBox="0 0 2500 2000" enable-background="new 0 0 2500 2000" xml:space="preserve">
<path fill="#000000" opacity="1.000000" stroke="none" 
	d="
M1510.000000,2002.000000 
	C1006.722412,2002.000000 504.444763,2002.000000 2.083581,2002.000000 
	C2.083581,1335.463013 2.083581,668.926025 2.083581,2.194506 
	C835.111206,2.194506 1668.222534,2.194506 2501.666992,2.194506 
	C2501.666992,668.666504 2501.666992,1335.333252 2501.666992,2002.000000 
	C2171.592041,2002.000000 1841.296021,2002.000000 1510.000000,2002.000000 
M1294.380493,1093.351318 
	C1289.503296,1116.582764 1281.685913,1139.155029 1277.461548,1163.670166 
	C1282.414673,1163.670166 1286.030762,1163.711548 1289.645752,1163.663818 
	C1322.593994,1163.229248 1355.542480,1162.391602 1388.489868,1162.429932 
	C1431.104370,1162.479492 1473.718140,1163.206543 1516.331665,1163.691772 
	C1521.987183,1163.756104 1527.696045,1163.678711 1533.283081,1164.408936 
	C1555.137939,1167.265259 1573.601440,1175.655151 1583.747681,1196.815918 
	C1590.673706,1211.260864 1591.092773,1226.251343 1587.028809,1241.485352 
	C1574.286499,1289.250122 1536.276855,1321.025879 1485.214478,1324.172729 
	C1464.980835,1325.419678 1444.657104,1325.596680 1424.375244,1325.568604 
	C1399.425903,1325.534058 1374.479004,1324.538086 1349.528442,1324.387207 
	C1313.199829,1324.167358 1276.868896,1324.316406 1240.538940,1324.361694 
	C1237.991211,1324.364868 1235.443970,1324.806763 1232.699341,1325.062988 
	C1219.664062,1377.375122 1204.771606,1428.622070 1192.861450,1481.670166 
	C1197.896851,1481.670166 1201.516724,1481.670166 1205.136597,1481.670166 
	C1279.463013,1481.670166 1353.789551,1481.555664 1428.115479,1481.750488 
	C1446.775879,1481.799316 1465.305664,1480.923218 1483.755371,1478.130737 
	C1518.924316,1472.807983 1552.446655,1462.091309 1583.881958,1445.642944 
	C1621.327026,1426.050293 1654.593140,1400.864258 1682.674805,1368.931396 
	C1718.773438,1327.881958 1744.269531,1281.348389 1755.337280,1227.706787 
	C1765.901367,1176.506348 1761.079590,1126.996338 1733.415405,1081.419189 
	C1713.841675,1049.170898 1685.511963,1027.645630 1649.679443,1015.795410 
	C1629.222290,1009.030029 1607.962036,1007.778748 1586.794678,1006.515259 
	C1563.236328,1005.109009 1539.601562,1004.510498 1515.997925,1004.454163 
	C1486.383911,1004.383423 1456.766724,1005.164856 1427.152710,1005.681030 
	C1391.551147,1006.301514 1355.951294,1007.021667 1320.351685,1007.744629 
	C1319.083862,1007.770386 1317.826050,1008.286560 1316.349854,1008.622925 
	C1309.175171,1036.451172 1302.039795,1064.126709 1294.380493,1093.351318 
M1370.342651,821.163818 
	C1369.261841,826.303162 1368.181030,831.442505 1366.870605,837.673706 
	C1371.486328,837.673706 1375.084473,837.673706 1378.682617,837.673706 
	C1439.988647,837.673706 1501.295166,837.839233 1562.600342,837.617249 
	C1605.533447,837.461731 1648.464600,836.786499 1691.396118,836.297852 
	C1693.328979,836.275879 1695.256592,835.803650 1697.276245,835.528931 
	C1711.030884,783.271790 1724.698364,731.346130 1738.479126,678.989990 
	C1626.987671,678.989990 1516.868774,678.989990 1406.438477,678.989990 
	C1403.871826,688.844055 1401.376587,698.137878 1399.033447,707.469971 
	C1389.646240,744.856506 1380.306152,782.254944 1370.342651,821.163818 
z"/>
<path fill="#00FE66" opacity="1.000000" stroke="none" 
	d="
M1294.642578,1092.576782 
	C1302.039795,1064.126709 1309.175171,1036.451172 1316.349854,1008.622925 
	C1317.826050,1008.286560 1319.083862,1007.770386 1320.351685,1007.744629 
	C1355.951294,1007.021667 1391.551147,1006.301514 1427.152710,1005.681030 
	C1456.766724,1005.164856 1486.383911,1004.383423 1515.997925,1004.454163 
	C1539.601562,1004.510498 1563.236328,1005.109009 1586.794678,1006.515259 
	C1607.962036,1007.778748 1629.222290,1009.030029 1649.679443,1015.795410 
	C1685.511963,1027.645630 1713.841675,1049.170898 1733.415405,1081.419189 
	C1761.079590,1126.996338 1765.901367,1176.506348 1755.337280,1227.706787 
	C1744.269531,1281.348389 1718.773438,1327.881958 1682.674805,1368.931396 
	C1654.593140,1400.864258 1621.327026,1426.050293 1583.881958,1445.642944 
	C1552.446655,1462.091309 1518.924316,1472.807983 1483.755371,1478.130737 
	C1465.305664,1480.923218 1446.775879,1481.799316 1428.115479,1481.750488 
	C1353.789551,1481.555664 1279.463013,1481.670166 1205.136597,1481.670166 
	C1201.516724,1481.670166 1197.896851,1481.670166 1192.861450,1481.670166 
	C1204.771606,1428.622070 1219.664062,1377.375122 1232.699341,1325.062988 
	C1235.443970,1324.806763 1237.991211,1324.364868 1240.538940,1324.361694 
	C1276.868896,1324.316406 1313.199829,1324.167358 1349.528442,1324.387207 
	C1374.479004,1324.538086 1399.425903,1325.534058 1424.375244,1325.568604 
	C1444.657104,1325.596680 1464.980835,1325.419678 1485.214478,1324.172729 
	C1536.276855,1321.025879 1574.286499,1289.250122 1587.028809,1241.485352 
	C1591.092773,1226.251343 1590.673706,1211.260864 1583.747681,1196.815918 
	C1573.601440,1175.655151 1555.137939,1167.265259 1533.283081,1164.408936 
	C1527.696045,1163.678711 1521.987183,1163.756104 1516.331665,1163.691772 
	C1473.718140,1163.206543 1431.104370,1162.479492 1388.489868,1162.429932 
	C1355.542480,1162.391602 1322.593994,1163.229248 1289.645752,1163.663818 
	C1286.030762,1163.711548 1282.414673,1163.670166 1277.461548,1163.670166 
	C1281.685913,1139.155029 1289.503296,1116.582764 1294.642578,1092.576782 
z"/>
<path fill="#00FD65" opacity="1.000000" stroke="none" 
	d="
M1370.645630,820.406372 
	C1380.306152,782.254944 1389.646240,744.856506 1399.033447,707.469971 
	C1401.376587,698.137878 1403.871826,688.844055 1406.438477,678.989990 
	C1516.868774,678.989990 1626.987671,678.989990 1738.479126,678.989990 
	C1724.698364,731.346130 1711.030884,783.271790 1697.276245,835.528931 
	C1695.256592,835.803650 1693.328979,836.275879 1691.396118,836.297852 
	C1648.464600,836.786499 1605.533447,837.461731 1562.600342,837.617249 
	C1501.295166,837.839233 1439.988647,837.673706 1378.682617,837.673706 
	C1375.084473,837.673706 1371.486328,837.673706 1366.870605,837.673706 
	C1368.181030,831.442505 1369.261841,826.303162 1370.645630,820.406372 
z"/>
</svg>