<svg version="1.1" id="Layer_1" xmlns="http://www.w3.org/2000/svg" xmlns:xlink="http://www.w3.org/1999/xlink" x="0px" y="0px"
	 width="100%" viewBox="0 0 2500 2000" enable-background="new 0 0 2500 2000" xml:space="preserve">
<path fill="#000000" opacity="1.000000" stroke="none" 
	d="
M1230.000000,2002.000000 
	C820.045349,2002.000000 411.090729,2002.000000 2.068052,2002.000000 
	C2.068052,1335.452637 2.068052,668.905334 2.068052,2.178977 
	C835.121521,2.178977 1668.243164,2.178977 2501.682373,2.178977 
	C2501.682373,668.666565 2501.682373,1335.333252 2501.682373,2002.000000 
	C2078.238037,2002.000000 1654.619019,2002.000000 1230.000000,2002.000000 
M1316.026367,1009.504761 
	C1309.504150,1034.931763 1302.724731,1060.296387 1296.531738,1085.803345 
	C1290.311279,1111.422852 1282.517212,1136.692383 1277.319580,1163.685791 
	C1282.156494,1163.685791 1285.440308,1163.724243 1288.723145,1163.679810 
	C1321.666870,1163.233398 1354.610840,1162.374634 1387.553833,1162.415771 
	C1430.829956,1162.469971 1474.105347,1163.213623 1517.380615,1163.706055 
	C1522.703125,1163.766602 1528.077515,1163.692139 1533.333740,1164.389526 
	C1555.183105,1167.288452 1573.624268,1175.711914 1583.767944,1196.857544 
	C1590.696533,1211.301392 1591.088501,1226.282471 1587.020264,1241.512695 
	C1574.200195,1289.506104 1535.987305,1321.111694 1485.201660,1324.159302 
	C1463.971924,1325.433228 1442.652954,1325.598999 1421.375000,1325.582275 
	C1397.429932,1325.563599 1373.487061,1324.520264 1349.540405,1324.372925 
	C1313.213013,1324.149536 1276.883179,1324.301270 1240.554443,1324.343018 
	C1237.991333,1324.345947 1235.428833,1324.755371 1232.734863,1324.986938 
	C1219.674683,1377.315674 1204.747559,1428.584351 1192.901245,1481.685791 
	C1197.953369,1481.685791 1201.585205,1481.685791 1205.217163,1481.685791 
	C1280.207764,1481.685791 1355.198608,1481.740479 1430.188965,1481.625366 
	C1441.135498,1481.608643 1452.096924,1481.022339 1463.023804,1480.288330 
	C1505.094849,1477.462646 1544.772949,1465.575317 1582.102783,1446.491455 
	C1620.025879,1427.104370 1653.696533,1401.876221 1681.954346,1369.617310 
	C1723.052979,1322.699707 1750.780762,1269.632568 1758.412354,1207.055908 
	C1763.716064,1163.567017 1757.418701,1122.232910 1734.874634,1084.108398 
	C1709.706177,1041.546021 1672.096558,1016.777466 1623.504272,1010.182556 
	C1596.279785,1006.487610 1568.613525,1004.937439 1541.119141,1004.592346 
	C1496.189819,1004.028320 1451.238403,1005.235474 1406.296387,1005.710266 
	C1404.968262,1005.724243 1403.643066,1005.975342 1402.314575,1005.998291 
	C1374.047852,1006.487000 1345.780884,1006.958984 1317.640137,1005.898987 
	C1327.955200,966.790344 1338.264038,927.680054 1348.588379,888.573853 
	C1352.385376,874.191895 1356.219238,859.819702 1360.241577,844.670044 
	C1356.231934,844.284607 1353.028931,843.753723 1349.818237,843.702637 
	C1318.241699,843.199646 1286.664795,842.616333 1255.085815,842.414490 
	C1243.492554,842.340393 1231.874878,842.948181 1220.300049,843.719666 
	C1187.218506,845.924805 1156.378540,855.411011 1128.868530,874.106140 
	C1109.612549,887.192078 1094.858032,904.244995 1090.946167,928.045349 
	C1086.974487,952.209961 1092.231079,973.870117 1113.050781,989.112183 
	C1126.551758,998.996338 1142.550659,1002.746765 1158.955322,1003.535095 
	C1183.498779,1004.714539 1208.084839,1005.004150 1232.652832,1005.668884 
	C1260.544312,1006.423523 1288.435791,1007.174255 1316.026367,1009.504761 
M1403.695312,682.746277 
	C1417.799561,630.063660 1431.903687,577.381104 1446.283936,523.667725 
	C1441.099976,523.667725 1437.473511,523.667664 1433.847046,523.667664 
	C1382.526367,523.667664 1331.205566,523.646240 1279.884888,523.676697 
	C1253.312500,523.692444 1226.929932,525.497742 1200.578369,529.479858 
	C1140.766968,538.518250 1084.966064,558.730103 1032.303345,587.990601 
	C977.520142,618.429382 928.914734,656.708923 886.424805,702.901550 
	C844.641663,748.325928 810.482117,798.709229 785.755798,855.257629 
	C758.419495,917.774902 743.241577,982.714966 747.511963,1051.554443 
	C749.314148,1080.605469 754.630249,1108.791748 764.194519,1136.168823 
	C780.358032,1182.436279 807.195801,1221.584961 844.817932,1252.944458 
	C878.307922,1280.859497 916.900757,1298.673584 959.312012,1308.707642 
	C999.607788,1318.241333 1040.676025,1320.442993 1081.730469,1321.410522 
	C1129.025879,1322.525269 1176.367798,1321.678711 1223.689453,1321.643921 
	C1226.256592,1321.642090 1228.823486,1321.271606 1231.838013,1321.038086 
	C1246.089111,1268.633545 1260.233521,1216.621582 1274.633911,1163.667847 
	C1269.902710,1163.667847 1266.606567,1163.646118 1263.310791,1163.671387 
	C1235.335083,1163.886230 1207.359497,1164.271729 1179.383789,1164.281982 
	C1154.407471,1164.291260 1129.421387,1164.234863 1104.458252,1163.535645 
	C1089.913574,1163.128174 1075.193481,1162.588501 1060.921631,1160.040283 
	C1020.721619,1152.862793 986.483154,1134.407837 959.633301,1103.118774 
	C934.039490,1073.293213 920.923523,1038.351074 918.478333,999.513245 
	C916.187134,963.119507 923.719055,928.157410 937.012817,894.411804 
	C958.828430,839.034058 993.887695,793.321411 1039.532471,755.539001 
	C1073.191406,727.677734 1110.868408,707.247742 1152.749878,694.405029 
	C1183.271851,685.045593 1214.708374,682.850708 1246.163086,682.583801 
	C1298.082275,682.143188 1350.015137,683.303162 1401.942139,683.792480 
	C1402.273926,683.795654 1402.605347,683.855225 1402.850586,685.566650 
	C1389.808105,737.379700 1376.765747,789.192749 1363.598999,841.499512 
	C1474.180664,841.499512 1583.861328,841.499512 1693.984253,841.499512 
	C1707.848999,788.885437 1721.540527,736.928650 1735.571655,683.682983 
	C1730.224731,683.682983 1726.295898,683.683044 1722.367065,683.683044 
	C1620.126099,683.682983 1517.885254,683.678711 1415.644287,683.697632 
	C1411.328491,683.698425 1407.012817,683.914185 1403.695312,682.746277 
z"/>
<path fill="#FEFEFE" opacity="1.000000" stroke="none" 
	d="
M1402.936890,683.888489 
	C1402.605347,683.855225 1402.273926,683.795654 1401.942139,683.792480 
	C1350.015137,683.303162 1298.082275,682.143188 1246.163086,682.583801 
	C1214.708374,682.850708 1183.271851,685.045593 1152.749878,694.405029 
	C1110.868408,707.247742 1073.191406,727.677734 1039.532471,755.539001 
	C993.887695,793.321411 958.828430,839.034058 937.012817,894.411804 
	C923.719055,928.157410 916.187134,963.119507 918.478333,999.513245 
	C920.923523,1038.351074 934.039490,1073.293213 959.633301,1103.118774 
	C986.483154,1134.407837 1020.721619,1152.862793 1060.921631,1160.040283 
	C1075.193481,1162.588501 1089.913574,1163.128174 1104.458252,1163.535645 
	C1129.421387,1164.234863 1154.407471,1164.291260 1179.383789,1164.281982 
	C1207.359497,1164.271729 1235.335083,1163.886230 1263.310791,1163.671387 
	C1266.606567,1163.646118 1269.902710,1163.667847 1274.633911,1163.667847 
	C1260.233521,1216.621582 1246.089111,1268.633545 1231.838013,1321.038086 
	C1228.823486,1321.271606 1226.256592,1321.642090 1223.689453,1321.643921 
	C1176.367798,1321.678711 1129.025879,1322.525269 1081.730469,1321.410522 
	C1040.676025,1320.442993 999.607788,1318.241333 959.312012,1308.707642 
	C916.900757,1298.673584 878.307922,1280.859497 844.817932,1252.944458 
	C807.195801,1221.584961 780.358032,1182.436279 764.194519,1136.168823 
	C754.630249,1108.791748 749.314148,1080.605469 747.511963,1051.554443 
	C743.241577,982.714966 758.419495,917.774902 785.755798,855.257629 
	C810.482117,798.709229 844.641663,748.325928 886.424805,702.901550 
	C928.914734,656.708923 977.520142,618.429382 1032.303345,587.990601 
	C1084.966064,558.730103 1140.766968,538.518250 1200.578369,529.479858 
	C1226.929932,525.497742 1253.312500,523.692444 1279.884888,523.676697 
	C1331.205566,523.646240 1382.526367,523.667664 1433.847046,523.667664 
	C1437.473511,523.667664 1441.099976,523.667725 1446.283936,523.667725 
	C1431.903687,577.381104 1417.799561,630.063660 1403.268677,683.370605 
	C1402.842041,683.994873 1402.936890,683.888489 1402.936890,683.888489 
z"/>
<path fill="#00FE66" opacity="1.000000" stroke="none" 
	d="
M1317.514038,1007.434143 
	C1345.780884,1006.958984 1374.047852,1006.487000 1402.314575,1005.998291 
	C1403.643066,1005.975342 1404.968262,1005.724243 1406.296387,1005.710266 
	C1451.238403,1005.235474 1496.189819,1004.028320 1541.119141,1004.592346 
	C1568.613525,1004.937439 1596.279785,1006.487610 1623.504272,1010.182556 
	C1672.096558,1016.777466 1709.706177,1041.546021 1734.874634,1084.108398 
	C1757.418701,1122.232910 1763.716064,1163.567017 1758.412354,1207.055908 
	C1750.780762,1269.632568 1723.052979,1322.699707 1681.954346,1369.617310 
	C1653.696533,1401.876221 1620.025879,1427.104370 1582.102783,1446.491455 
	C1544.772949,1465.575317 1505.094849,1477.462646 1463.023804,1480.288330 
	C1452.096924,1481.022339 1441.135498,1481.608643 1430.188965,1481.625366 
	C1355.198608,1481.740479 1280.207764,1481.685791 1205.217163,1481.685791 
	C1201.585205,1481.685791 1197.953369,1481.685791 1192.901245,1481.685791 
	C1204.747559,1428.584351 1219.674683,1377.315674 1232.734863,1324.986938 
	C1235.428833,1324.755371 1237.991333,1324.345947 1240.554443,1324.343018 
	C1276.883179,1324.301270 1313.213013,1324.149536 1349.540405,1324.372925 
	C1373.487061,1324.520264 1397.429932,1325.563599 1421.375000,1325.582275 
	C1442.652954,1325.598999 1463.971924,1325.433228 1485.201660,1324.159302 
	C1535.987305,1321.111694 1574.200195,1289.506104 1587.020264,1241.512695 
	C1591.088501,1226.282471 1590.696533,1211.301392 1583.767944,1196.857544 
	C1573.624268,1175.711914 1555.183105,1167.288452 1533.333740,1164.389526 
	C1528.077515,1163.692139 1522.703125,1163.766602 1517.380615,1163.706055 
	C1474.105347,1163.213623 1430.829956,1162.469971 1387.553833,1162.415771 
	C1354.610840,1162.374634 1321.666870,1163.233398 1288.723145,1163.679810 
	C1285.440308,1163.724243 1282.156494,1163.685791 1277.319580,1163.685791 
	C1282.517212,1136.692383 1290.311279,1111.422852 1296.531738,1085.803345 
	C1302.724731,1060.296387 1309.504150,1034.931763 1316.408936,1008.437256 
	C1316.791504,1007.369751 1317.514038,1007.434143 1317.514038,1007.434143 
z"/>
<path fill="#00FE66" opacity="1.000000" stroke="none" 
	d="
M1402.893799,684.727539 
	C1402.936890,683.888489 1402.842041,683.994873 1402.769531,684.012329 
	C1407.012817,683.914185 1411.328491,683.698425 1415.644287,683.697632 
	C1517.885254,683.678711 1620.126099,683.682983 1722.367065,683.683044 
	C1726.295898,683.683044 1730.224731,683.682983 1735.571655,683.682983 
	C1721.540527,736.928650 1707.848999,788.885437 1693.984253,841.499512 
	C1583.861328,841.499512 1474.180664,841.499512 1363.598999,841.499512 
	C1376.765747,789.192749 1389.808105,737.379700 1402.893799,684.727539 
z"/>
<path fill="#FEFEFE" opacity="1.000000" stroke="none" 
	d="
M1317.577148,1006.666565 
	C1317.514038,1007.434143 1316.791504,1007.369751 1316.559326,1007.648193 
	C1288.435791,1007.174255 1260.544312,1006.423523 1232.652832,1005.668884 
	C1208.084839,1005.004150 1183.498779,1004.714539 1158.955322,1003.535095 
	C1142.550659,1002.746765 1126.551758,998.996338 1113.050781,989.112183 
	C1092.231079,973.870117 1086.974487,952.209961 1090.946167,928.045349 
	C1094.858032,904.244995 1109.612549,887.192078 1128.868530,874.106140 
	C1156.378540,855.411011 1187.218506,845.924805 1220.300049,843.719666 
	C1231.874878,842.948181 1243.492554,842.340393 1255.085815,842.414490 
	C1286.664795,842.616333 1318.241699,843.199646 1349.818237,843.702637 
	C1353.028931,843.753723 1356.231934,844.284607 1360.241577,844.670044 
	C1356.219238,859.819702 1352.385376,874.191895 1348.588379,888.573853 
	C1338.264038,927.680054 1327.955200,966.790344 1317.577148,1006.666565 
z"/>
</svg>